<svg width="484" height="484" viewBox="0 0 484 484" fill="none" xmlns="http://www.w3.org/2000/svg">
<path opacity="0.0344828" d="M104.122 243.858C88.3412 237.505 90.7645 214.449 107.521 211.516L164.606 201.524C174.347 199.819 180.978 190.693 179.59 180.901L171.452 123.523C169.064 106.68 190.242 97.2506 201.161 110.296L238.356 154.737C244.703 162.32 255.923 163.5 263.708 157.401L309.33 121.665C322.722 111.175 341.478 124.801 335.64 140.779L315.75 195.212C312.356 204.501 316.945 214.807 326.119 218.5L379.878 240.142C395.659 246.495 393.236 269.551 376.479 272.484L319.395 282.476C309.653 284.181 303.022 293.308 304.411 303.099L312.548 360.478C314.937 377.32 293.758 386.75 282.84 373.704L245.645 329.263C239.298 321.68 228.077 320.501 220.292 326.599L174.67 362.335C161.278 372.825 142.523 359.199 148.361 343.221L168.251 288.788C171.644 279.499 167.056 269.193 157.882 265.5L104.122 243.858Z" fill="black" stroke="white" stroke-width="1.4151"/>
<path opacity="0.0689655" d="M106.599 237.017C91.1728 229.847 94.7993 206.95 111.687 204.898L167.548 198.11C177.364 196.917 184.464 188.149 183.589 178.299L178.615 122.248C177.111 105.303 198.754 96.995 208.975 110.594L242.784 155.577C248.725 163.482 259.868 165.247 267.961 159.565L314.016 127.231C327.939 117.456 345.955 132.045 339.289 147.696L317.236 199.466C313.36 208.565 317.404 219.097 326.372 223.265L377.401 246.983C392.827 254.153 389.201 277.05 372.314 279.102L316.453 285.889C306.636 287.082 299.536 295.85 300.41 305.7L305.386 361.751C306.89 378.696 285.246 387.004 275.026 373.405L241.217 328.423C235.275 320.518 224.133 318.753 216.039 324.435L169.985 356.768C156.062 366.543 138.045 351.954 144.712 336.303L166.764 284.532C170.639 275.434 166.597 264.902 157.629 260.734L106.599 237.017Z" fill="black" stroke="white" stroke-width="1.4151"/>
<path opacity="0.103448" d="M109.409 230.44C94.3782 222.473 99.1984 199.796 116.17 198.63L170.632 194.89C180.498 194.213 188.046 185.83 187.689 175.948L185.715 121.392C185.1 104.392 207.148 97.2281 216.643 111.343L247.113 156.639C252.633 164.844 263.668 167.189 272.048 161.939L318.307 132.952C332.722 123.92 349.95 139.432 342.474 154.712L318.481 203.748C314.135 212.631 317.621 223.36 326.359 227.991L374.591 253.559C389.621 261.527 384.801 284.204 367.83 285.369L313.368 289.109C303.502 289.787 295.953 298.169 296.31 308.052L298.284 362.608C298.899 379.608 276.851 386.771 267.356 372.657L236.886 327.361C231.366 319.156 220.332 316.81 211.952 322.061L165.693 351.047C151.278 360.08 134.049 344.568 141.526 329.288L165.519 280.251C169.865 271.368 166.378 260.64 157.641 256.008L109.409 230.44Z" fill="black" stroke="white" stroke-width="1.4151"/>
<path opacity="0.137931" d="M112.529 224.142C97.9365 215.398 103.937 193.006 120.946 192.73L173.848 191.874C183.736 191.713 191.712 183.736 191.873 173.848L192.73 120.945C193.006 103.936 215.398 97.9365 224.142 112.529L251.335 157.915C256.418 166.398 267.315 169.318 275.958 164.513L322.201 138.804C337.069 130.538 353.462 146.93 345.196 161.798L319.487 208.042C314.682 216.686 317.602 227.583 326.085 232.665L371.472 259.858C386.064 268.602 380.064 290.994 363.055 291.27L310.152 292.127C300.265 292.287 292.287 300.264 292.127 310.152L291.27 363.054C290.994 380.064 268.601 386.064 259.858 371.471L232.665 326.085C227.582 317.602 216.685 314.682 208.042 319.487L161.799 345.196C146.93 353.462 130.538 337.069 138.804 322.201L164.512 275.958C169.318 267.315 166.398 256.418 157.915 251.336L112.529 224.142Z" fill="black" stroke="white" stroke-width="1.4151"/>
<path opacity="0.172414" d="M115.939 218.137C101.823 208.642 108.987 186.594 125.988 187.209L177.182 189.061C187.064 189.418 195.448 181.87 196.126 172.004L199.635 120.895C200.801 103.924 223.477 99.1045 231.444 114.134L255.437 159.397C260.069 168.134 270.799 171.62 279.682 167.274L325.697 144.759C340.977 137.283 356.49 154.511 347.457 168.926L320.255 212.336C315.005 220.716 317.35 231.751 325.556 237.27L368.061 265.863C382.176 275.358 375.012 297.406 358.012 296.791L306.818 294.939C296.935 294.582 288.551 302.13 287.874 311.996L284.365 363.104C283.2 380.075 260.523 384.896 252.556 369.866L228.562 324.603C223.931 315.866 213.201 312.38 204.318 316.726L158.302 339.241C143.022 346.717 127.51 329.488 136.543 315.073L163.744 271.664C168.995 263.284 166.649 252.249 158.444 246.73L115.939 218.137Z" fill="black" stroke="white" stroke-width="1.4151"/>
<path opacity="0.206897" d="M119.616 212.438C106.017 202.217 114.325 180.574 131.27 182.078L180.623 186.458C190.473 187.332 199.24 180.233 200.433 170.416L206.41 121.231C208.462 104.344 231.36 100.717 238.53 116.143L259.413 161.074C263.581 170.042 274.112 174.085 283.211 170.209L328.794 150.793C344.445 144.126 359.034 162.143 349.259 176.066L320.79 216.616C315.107 224.71 316.873 235.853 324.778 241.794L364.385 271.563C377.983 281.784 369.676 303.426 352.731 301.922L303.378 297.542C293.528 296.668 284.76 303.767 283.567 313.584L277.591 362.769C275.539 379.657 252.641 383.283 245.471 367.857L224.588 322.926C220.42 313.958 209.888 309.915 200.79 313.79L155.207 333.207C139.556 339.874 124.966 321.857 134.741 307.935L163.21 267.383C168.892 259.29 167.128 248.147 159.223 242.206L119.616 212.438Z" fill="black" stroke="white" stroke-width="1.4151"/>
<path opacity="0.241379" d="M123.537 207.056C110.492 196.138 119.921 174.958 136.764 177.347L184.155 184.068C193.946 185.457 203.074 178.826 204.779 169.085L213.031 121.936C215.964 105.18 239.021 102.756 245.373 118.536L263.248 162.939C266.941 172.113 277.247 176.702 286.535 173.308L331.494 156.88C347.472 151.041 361.098 169.798 350.608 183.19L321.092 220.871C314.994 228.656 316.174 239.876 323.757 246.223L360.463 276.944C373.508 287.862 364.078 309.042 347.235 306.653L299.844 299.932C290.053 298.543 280.926 305.174 279.221 314.915L270.968 362.063C268.035 378.82 244.979 381.244 238.626 365.463L220.752 321.06C217.059 311.887 206.753 307.298 197.464 310.692L152.506 327.12C136.528 332.958 122.901 314.202 133.392 300.81L162.907 263.129C169.005 255.344 167.826 244.124 160.242 237.777L123.537 207.056Z" fill="black" stroke="white" stroke-width="1.4151"/>
<path opacity="0.275862" d="M127.681 202C115.225 190.414 125.75 169.758 142.445 173.025L187.77 181.894C197.475 183.793 206.936 177.649 209.149 168.011L219.481 122.998C223.287 106.417 246.438 105.203 251.957 121.295L266.937 164.983C270.145 174.337 280.197 179.458 289.65 176.555L333.801 162.996C350.062 158.003 362.688 177.446 351.512 190.271L321.168 225.088C314.671 232.543 315.262 243.808 322.502 250.544L356.319 282C368.775 293.586 358.25 314.242 341.556 310.975L296.23 302.106C286.525 300.207 277.064 306.351 274.852 315.989L264.519 361.004C260.713 377.584 237.562 378.797 232.044 362.705L217.062 319.018C213.854 309.664 203.802 304.542 194.349 307.445L150.2 321.004C133.938 325.998 121.312 306.555 132.488 293.731L162.832 258.913C169.329 251.457 168.738 240.191 161.498 233.456L127.681 202Z" fill="black" stroke="white" stroke-width="1.4151"/>
<path opacity="0.310345" d="M132.023 197.28C120.191 185.058 131.782 164.981 148.283 169.117L191.451 179.938C201.043 182.342 210.813 176.701 213.527 167.192L225.74 124.398C230.408 108.039 253.591 108.039 258.26 124.398L270.473 167.192C273.187 176.701 282.957 182.342 292.55 179.938L335.717 169.117C352.218 164.981 363.809 185.058 351.977 197.28L321.022 229.255C314.144 236.36 314.143 247.641 321.022 254.746L351.977 286.72C363.809 298.942 352.218 319.019 335.717 314.883L292.549 304.062C282.957 301.658 273.187 307.299 270.473 316.808L258.26 359.603C253.591 375.961 230.409 375.961 225.74 359.602L213.527 316.809C210.813 307.299 201.043 301.658 191.45 304.062L148.283 314.883C131.782 319.019 120.191 298.942 132.023 286.72L162.978 254.745C169.856 247.64 169.857 236.359 162.978 229.254L132.023 197.28Z" fill="black" stroke="white" stroke-width="1.4151"/>
<path opacity="0.344828" d="M136.54 192.901C125.364 180.077 137.99 160.634 154.252 165.628L195.187 178.199C204.64 181.102 214.692 175.981 217.9 166.626L231.791 126.12C237.309 110.028 260.46 111.242 264.266 127.822L273.847 169.558C276.059 179.197 285.52 185.341 295.225 183.442L337.251 175.219C353.946 171.952 364.47 192.608 352.015 204.194L320.659 233.359C313.419 240.094 312.828 251.36 319.325 258.815L347.46 291.098C358.637 303.923 346.01 323.366 329.748 318.372L288.812 305.8C279.359 302.898 269.308 308.019 266.1 317.374L252.209 357.88C246.691 373.971 223.54 372.758 219.734 356.178L210.153 314.442C207.941 304.803 198.48 298.659 188.775 300.558L146.749 308.781C130.055 312.048 119.53 291.392 131.986 279.806L163.341 250.641C170.582 243.906 171.172 232.64 164.674 225.184L136.54 192.901Z" fill="black" stroke="white" stroke-width="1.4151"/>
<path opacity="0.37931" d="M141.209 188.87C130.719 175.478 144.346 156.722 160.324 162.56L198.966 176.68C208.254 180.074 218.56 175.485 222.253 166.312L237.617 128.147C243.97 112.366 267.025 114.79 269.958 131.547L277.052 172.072C278.757 181.813 287.883 188.443 297.674 187.055L338.408 181.278C355.251 178.889 364.68 200.068 351.635 210.986L320.086 237.392C312.503 243.739 311.323 254.958 317.421 262.743L342.791 295.131C353.281 308.523 339.654 327.279 323.676 321.44L285.034 307.32C275.746 303.927 265.44 308.515 261.747 317.689L246.383 355.853C240.03 371.634 216.974 369.211 214.041 352.454L206.948 311.929C205.243 302.188 196.116 295.557 186.325 296.946L145.592 302.722C128.749 305.111 119.319 283.933 132.365 273.014L163.914 246.609C171.497 240.262 172.677 229.043 166.579 221.258L141.209 188.87Z" fill="black" stroke="white" stroke-width="1.4151"/>
<path opacity="0.413793" d="M146.005 185.188C136.231 171.265 150.82 153.249 166.471 159.915L202.774 175.378C211.872 179.254 222.404 175.211 226.572 166.243L243.203 130.46C250.373 115.033 273.271 118.66 275.323 135.547L280.083 174.718C281.276 184.535 290.043 191.635 299.893 190.761L339.198 187.272C356.143 185.768 364.451 207.412 350.853 217.632L319.309 241.34C311.404 247.282 309.639 258.424 315.321 266.517L337.995 298.813C347.77 312.736 333.181 330.752 317.53 324.085L281.226 308.621C272.128 304.746 261.596 308.789 257.428 317.757L240.796 353.54C233.626 368.967 210.728 365.341 208.676 348.454L203.917 309.281C202.724 299.465 193.957 292.365 184.107 293.239L144.801 296.728C127.856 298.232 119.549 276.588 133.147 266.368L164.691 242.66C172.596 236.719 174.361 225.576 168.679 217.482L146.005 185.188Z" fill="black" stroke="white" stroke-width="1.4151"/>
<path opacity="0.448276" d="M150.906 181.858C141.873 167.443 157.385 150.215 172.665 157.691L206.6 174.294C215.483 178.64 226.212 175.154 230.843 166.417L248.537 133.038C256.505 118.008 279.181 122.828 280.346 139.8L282.935 177.49C283.613 187.356 291.996 194.905 301.879 194.547L339.632 193.181C356.633 192.566 363.797 214.614 349.682 224.109L318.336 245.195C310.13 250.715 307.785 261.749 313.035 270.129L333.095 302.142C342.127 316.558 326.615 333.786 311.335 326.309L277.4 309.706C268.517 305.36 257.788 308.846 253.157 317.583L235.463 350.962C227.495 365.992 204.819 361.172 203.654 344.201L201.066 306.511C200.389 296.645 192.004 289.096 182.122 289.453L144.368 290.819C127.368 291.434 120.204 269.386 134.318 259.891L165.665 238.804C173.87 233.285 176.216 222.251 170.965 213.871L150.906 181.858Z" fill="black" stroke="white" stroke-width="1.4151"/>
<path opacity="0.482759" d="M155.886 178.881C147.62 164.013 164.013 147.62 178.882 155.886L210.43 173.426C219.073 178.231 229.97 175.311 235.053 166.828L253.606 135.864C262.35 121.271 284.742 127.271 285.018 144.28L285.603 180.373C285.763 190.26 293.74 198.237 303.628 198.398L339.72 198.982C356.729 199.258 362.73 221.651 348.137 230.394L317.172 248.947C308.689 254.03 305.769 264.927 310.574 273.57L328.115 305.119C336.381 319.987 319.988 336.38 305.119 328.114L273.57 310.574C264.926 305.769 254.03 308.689 248.947 317.172L230.395 348.136C221.651 362.729 199.258 356.729 198.983 339.72L198.398 303.627C198.238 293.74 190.261 285.763 180.373 285.602L144.28 285.018C127.271 284.743 121.271 262.349 135.864 253.606L166.828 235.053C175.311 229.971 178.231 219.073 173.426 210.43L155.886 178.881Z" fill="black" stroke="white" stroke-width="1.4151"/>
<path opacity="0.517241" d="M160.923 176.256C153.447 160.976 170.676 145.463 185.091 154.496L214.254 172.771C222.634 178.021 233.668 175.676 239.188 167.47L258.398 138.914C267.893 124.799 289.942 131.963 289.326 148.963L288.082 183.357C287.724 193.239 295.273 201.623 305.139 202.3L339.474 204.658C356.446 205.823 361.266 228.499 346.235 236.467L315.828 252.587C307.09 257.219 303.604 267.948 307.95 276.83L323.076 307.744C330.553 323.025 313.324 338.537 298.909 329.505L269.746 311.23C261.366 305.979 250.331 308.325 244.812 316.53L225.601 345.086C216.106 359.201 194.058 352.037 194.673 335.037L195.918 300.644C196.275 290.761 188.727 282.377 178.861 281.7L144.526 279.343C127.554 278.177 122.734 255.501 137.764 247.533L168.172 231.413C176.909 226.782 180.396 216.053 176.05 207.17L160.923 176.256Z" fill="black" stroke="white" stroke-width="1.4151"/>
<path opacity="0.551724" d="M165.996 173.98C159.33 158.329 177.346 143.74 191.269 153.515L218.06 172.324C226.153 178.006 237.296 176.242 243.237 168.337L262.905 142.168C273.126 128.57 294.769 136.878 293.265 153.823L290.371 186.429C289.496 196.28 296.596 205.047 306.413 206.24L338.909 210.189C355.796 212.241 359.423 235.138 343.997 242.308L314.311 256.105C305.344 260.274 301.3 270.805 305.176 279.903L318.004 310.02C324.671 325.671 306.655 340.26 292.732 330.485L265.94 311.675C257.847 305.993 246.705 307.758 240.763 315.663L221.095 341.832C210.875 355.43 189.232 347.122 190.736 330.177L193.629 297.57C194.503 287.72 187.404 278.953 177.587 277.76L145.091 273.811C128.204 271.759 124.577 248.862 140.004 241.692L169.689 227.895C178.657 223.726 182.7 213.194 178.824 204.096L165.996 173.98Z" fill="black" stroke="white" stroke-width="1.4151"/>
<path opacity="0.586207" d="M171.08 172.05C165.242 156.072 183.997 142.445 197.389 152.936L221.836 172.084C229.621 178.183 240.841 177.004 247.188 169.42L267.119 145.606C278.037 132.561 299.216 141.991 296.827 158.833L292.467 189.58C291.078 199.371 297.709 208.498 307.45 210.203L338.039 215.556C354.795 218.489 357.219 241.545 341.438 247.898L312.631 259.495C303.457 263.188 298.869 273.494 302.262 282.782L312.92 311.95C318.758 327.928 300.003 341.555 286.611 331.065L262.164 311.916C254.379 305.818 243.16 306.997 236.813 314.581L216.881 338.394C205.963 351.439 184.784 342.009 187.173 325.167L191.533 294.421C192.922 284.63 186.291 275.503 176.55 273.798L145.961 268.444C129.205 265.511 126.781 242.455 142.562 236.102L171.369 224.506C180.543 220.813 185.131 210.506 181.737 201.218L171.08 172.05Z" fill="black" stroke="white" stroke-width="1.4151"/>
<path opacity="0.62069" d="M176.154 170.46C171.159 154.198 190.603 141.572 203.428 152.748L225.571 172.047C233.026 178.544 244.292 177.953 251.027 170.712L271.032 149.205C282.619 136.75 303.274 147.274 300.008 163.969L294.367 192.795C292.468 202.5 298.612 211.962 308.25 214.174L336.879 220.746C353.459 224.552 354.672 247.702 338.581 253.221L310.797 262.749C301.442 265.957 296.32 276.008 299.223 285.461L307.847 313.54C312.841 329.802 293.397 342.428 280.573 331.252L258.429 311.953C250.974 305.456 239.708 306.047 232.973 313.288L212.968 334.795C201.382 347.251 180.726 336.726 183.993 320.031L189.633 291.205C191.532 281.5 185.388 272.039 175.75 269.826L147.121 263.254C130.541 259.449 129.328 236.297 145.419 230.779L173.204 221.251C182.558 218.043 187.68 207.992 184.777 198.539L176.154 170.46Z" fill="black" stroke="white" stroke-width="1.4151"/>
<path opacity="0.655172" d="M181.196 169.204C177.059 152.703 197.137 141.112 209.359 152.944L229.255 172.205C236.36 179.083 247.64 179.084 254.745 172.206L274.641 152.944C286.863 141.112 306.94 152.703 302.804 169.204L296.071 196.065C293.667 205.657 299.307 215.427 308.816 218.141L335.445 225.74C351.804 230.408 351.803 253.592 335.445 258.26L308.816 265.859C299.307 268.573 293.667 278.343 296.072 287.935L302.804 314.795C306.94 331.296 286.863 342.888 274.641 331.056L254.746 311.794C247.641 304.916 236.359 304.916 229.254 311.794L209.359 331.056C197.137 342.888 177.06 331.297 181.196 314.796L187.929 287.935C190.333 278.343 184.693 268.573 175.183 265.859L148.554 258.26C132.196 253.591 132.197 230.408 148.555 225.74L175.184 218.141C184.693 215.427 190.333 205.656 187.929 196.064L181.196 169.204Z" fill="black" stroke="white" stroke-width="1.4151"/>
<path opacity="0.689655" d="M186.187 168.265C182.92 151.57 203.575 141.045 215.162 153.501L232.876 172.546C239.612 179.787 250.877 180.377 258.333 173.88L277.942 156.791C290.767 145.615 310.209 158.241 305.215 174.502L297.579 199.367C294.676 208.82 299.798 218.872 309.152 222.08L333.756 230.517C349.848 236.035 348.634 259.186 332.053 262.992L306.703 268.811C297.064 271.024 290.92 280.486 292.819 290.191L297.814 315.717C301.081 332.411 280.426 342.936 268.839 330.48L251.124 311.436C244.388 304.195 233.122 303.604 225.667 310.101L206.059 327.19C193.234 338.367 173.791 325.74 178.785 309.478L186.421 284.614C189.324 275.161 184.203 265.109 174.848 261.901L150.245 253.464C134.153 247.946 135.366 224.795 151.946 220.989L177.297 215.17C186.935 212.957 193.08 203.496 191.181 193.791L186.187 168.265Z" fill="black" stroke="white" stroke-width="1.4151"/>
<path opacity="0.724138" d="M191.104 167.652C188.715 150.809 209.894 141.38 220.812 154.425L236.427 173.081C242.774 180.665 253.994 181.844 261.779 175.746L280.931 160.743C294.323 150.253 313.079 163.88 307.241 179.858L298.891 202.71C295.497 211.998 300.086 222.305 309.259 225.997L331.828 235.083C347.609 241.436 345.185 264.492 328.429 267.425L304.464 271.619C294.723 273.324 288.092 282.451 289.481 292.242L292.896 316.33C295.285 333.173 274.107 342.602 263.188 329.556L247.573 310.9C241.226 303.317 230.007 302.137 222.222 308.235L203.069 323.238C189.677 333.728 170.922 320.102 176.76 304.123L185.11 281.272C188.504 271.984 183.915 261.678 174.742 257.985L152.173 248.899C136.392 242.546 138.815 219.49 155.572 216.557L179.536 212.363C189.278 210.658 195.908 201.531 194.52 191.74L191.104 167.652Z" fill="black" stroke="white" stroke-width="1.4151"/>
<path opacity="0.758621" d="M195.929 167.346C194.425 150.401 216.069 142.093 226.29 155.692L239.897 173.796C245.838 181.701 256.98 183.466 265.074 177.784L283.609 164.771C297.532 154.996 315.55 169.585 308.883 185.236L300.008 206.072C296.132 215.17 300.175 225.702 309.143 229.87L329.681 239.416C345.107 246.586 341.48 269.483 324.593 271.535L302.11 274.267C292.293 275.46 285.194 284.227 286.068 294.078L288.071 316.637C289.575 333.582 267.931 341.89 257.71 328.291L244.104 310.186C238.162 302.281 227.02 300.516 218.926 306.198L200.39 319.212C186.467 328.987 168.451 314.397 175.117 298.747L183.993 277.911C187.868 268.813 183.825 258.281 174.858 254.113L154.32 244.567C138.893 237.397 142.52 214.5 159.407 212.448L181.89 209.715C191.706 208.522 198.806 199.755 197.932 189.905L195.929 167.346Z" fill="black" stroke="white" stroke-width="1.4151"/>
<path opacity="0.793103" d="M200.646 167.334C200.03 150.334 222.079 143.17 231.574 157.285L243.277 174.681C248.796 182.887 259.831 185.233 268.211 179.982L285.978 168.849C300.393 159.816 317.621 175.329 310.144 190.609L300.93 209.442C296.584 218.325 300.07 229.054 308.807 233.685L327.331 243.505C342.362 251.473 337.542 274.15 320.571 275.315L299.653 276.751C289.787 277.428 282.239 285.812 282.596 295.695L283.354 316.647C283.969 333.648 261.92 340.812 252.425 326.697L240.723 309.3C235.203 301.095 224.169 298.749 215.789 304L198.023 315.134C183.607 324.166 166.379 308.653 173.855 293.373L183.07 274.54C187.416 265.657 183.93 254.928 175.193 250.296L156.669 240.477C141.638 232.509 146.458 209.833 163.43 208.667L184.346 207.231C194.212 206.554 201.761 198.17 201.403 188.287L200.646 167.334Z" fill="black" stroke="white" stroke-width="1.4151"/>
<path opacity="0.827586" d="M205.235 167.606C205.511 150.596 227.904 144.596 236.647 159.189L246.559 175.732C251.642 184.215 262.539 187.134 271.182 182.329L288.037 172.959C302.905 164.693 319.298 181.086 311.032 195.954L301.661 212.809C296.856 221.452 299.776 232.349 308.259 237.432L324.802 247.344C339.395 256.088 333.394 278.481 316.385 278.756L297.102 279.068C287.214 279.229 279.238 287.206 279.078 297.094L278.765 316.377C278.489 333.386 256.097 339.386 247.354 324.793L237.441 308.25C232.358 299.767 221.461 296.847 212.818 301.652L195.963 311.023C181.095 319.289 164.702 302.897 172.968 288.028L182.338 271.172C187.143 262.529 184.224 251.632 175.741 246.55L159.198 236.638C144.605 227.895 150.606 205.502 167.615 205.226L186.897 204.913C196.785 204.753 204.762 196.776 204.922 186.889L205.235 167.606Z" fill="black" stroke="white" stroke-width="1.4151"/>
<path opacity="0.862069" d="M209.681 168.147C210.846 151.175 233.522 146.355 241.49 161.386L249.735 176.939C254.366 185.676 265.096 189.163 273.978 184.817L289.792 177.08C305.072 169.603 320.584 186.831 311.551 201.247L302.205 216.164C296.954 224.544 299.299 235.579 307.505 241.099L322.111 250.924C336.226 260.419 329.062 282.467 312.062 281.852L294.469 281.216C284.586 280.859 276.202 288.408 275.525 298.273L274.319 315.836C273.154 332.807 250.478 337.627 242.51 322.597L234.265 307.043C229.633 298.306 218.904 294.82 210.021 299.166L194.208 306.903C178.928 314.379 163.416 297.151 172.448 282.736L181.796 267.819C187.047 259.439 184.701 248.404 176.496 242.885L161.889 233.058C147.774 223.563 154.938 201.515 171.938 202.13L189.531 202.767C199.414 203.124 207.797 195.575 208.475 185.709L209.681 168.147Z" fill="black" stroke="white" stroke-width="1.4151"/>
<path opacity="0.896552" d="M213.967 168.942C216.019 152.055 238.918 148.428 246.088 163.855L252.798 178.295C256.966 187.262 267.498 191.306 276.596 187.43L291.246 181.19C306.897 174.523 321.486 192.54 311.711 206.463L302.562 219.495C296.88 227.588 298.644 238.731 306.55 244.672L319.278 254.239C332.877 264.46 324.569 286.103 307.624 284.599L291.763 283.191C281.913 282.317 273.146 289.417 271.953 299.233L270.033 315.04C267.981 331.927 245.083 335.554 237.913 320.127L231.202 305.688C227.034 296.72 216.502 292.677 207.404 296.552L192.754 302.793C177.104 309.459 162.514 291.443 172.288 277.52L181.438 264.488C187.121 256.394 185.356 245.252 177.451 239.31L164.722 229.743C151.123 219.523 159.431 197.879 176.376 199.383L192.237 200.791C202.087 201.665 210.854 194.566 212.047 184.749L213.967 168.942Z" fill="black" stroke="white" stroke-width="1.4151"/>
<path opacity="0.931035" d="M218.081 169.978C221.014 153.221 244.071 150.798 250.424 166.579L255.742 179.789C259.435 188.963 269.741 193.552 279.03 190.158L292.406 185.27C308.385 179.432 322.011 198.187 311.521 211.579L302.738 222.791C296.641 230.576 297.82 241.796 305.403 248.143L316.325 257.284C329.37 268.202 319.941 289.381 303.098 286.992L288.997 284.992C279.206 283.604 270.079 290.235 268.374 299.976L265.919 314.004C262.986 330.761 239.929 333.184 233.576 317.403L228.258 304.192C224.565 295.019 214.259 290.43 204.971 293.824L191.594 298.712C175.616 304.55 161.989 285.794 172.479 272.402L181.262 261.191C187.36 253.406 186.181 242.186 178.597 235.839L167.676 226.698C154.631 215.78 164.06 194.601 180.902 196.99L195.003 198.99C204.794 200.378 213.921 193.747 215.626 184.006L218.081 169.978Z" fill="black" stroke="white" stroke-width="1.4151"/>
<path opacity="0.965517" d="M222.01 171.237C225.816 154.657 248.967 153.444 254.485 169.535L258.56 181.417C261.767 190.771 271.819 195.893 281.273 192.99L293.28 189.302C309.541 184.308 322.167 203.75 310.991 216.575L302.739 226.044C296.242 233.5 296.832 244.765 304.073 251.501L313.27 260.056C325.726 271.642 315.201 292.298 298.506 289.031L286.18 286.619C276.474 284.72 267.013 290.865 264.801 300.503L261.99 312.745C258.184 329.325 235.034 330.538 229.515 314.447L225.441 302.566C222.233 293.211 212.181 288.089 202.728 290.993L190.721 294.68C174.459 299.674 161.832 280.231 173.009 267.406L181.261 257.937C187.758 250.482 187.168 239.216 179.927 232.481L170.73 223.926C158.274 212.34 168.799 191.684 185.494 194.95L197.821 197.363C207.526 199.262 216.987 193.118 219.2 183.479L222.01 171.237Z" fill="black" stroke="white" stroke-width="1.4151"/>
<path d="M225.74 172.704C230.409 156.345 253.591 156.345 258.26 172.704L261.246 183.166C263.96 192.675 273.73 198.315 283.322 195.911L293.875 193.265C310.376 189.129 321.967 209.206 310.135 221.428L302.567 229.246C295.689 236.351 295.689 247.632 302.567 254.737L310.135 262.553C321.967 274.775 310.376 294.852 293.875 290.716L283.322 288.071C273.73 285.666 263.96 291.307 261.246 300.817L258.26 311.278C253.591 327.636 230.409 327.636 225.74 311.278L222.755 300.817C220.041 291.308 210.271 285.667 200.679 288.071L190.125 290.716C173.624 294.852 162.033 274.775 173.865 262.553L181.433 254.737C188.311 247.632 188.311 236.351 181.433 229.246L173.865 221.428C162.033 209.206 173.624 189.129 190.125 193.265L200.679 195.911C210.271 198.315 220.041 192.675 222.755 183.166L225.74 172.704Z" fill="black" stroke="white" stroke-width="1.4151"/>
<mask id="path-30-outside-1_2039_452" maskUnits="userSpaceOnUse" x="205" y="214" width="74" height="55" fill="black">
<rect fill="white" x="205" y="214" width="74" height="55"/>
<path d="M210.043 216.586H229.344L242.211 231L255.043 216.586H274.273L252.02 242.004L274.273 267H254.305L242.07 253.184L229.977 267H210.043L232.367 242.004L210.043 216.586Z"/>
</mask>
<path d="M210.043 216.586H229.344L242.211 231L255.043 216.586H274.273L252.02 242.004L274.273 267H254.305L242.07 253.184L229.977 267H210.043L232.367 242.004L210.043 216.586Z" fill="black"/>
<path d="M210.043 216.586V214.586H205.625L208.54 217.906L210.043 216.586ZM229.344 216.586L230.836 215.254L230.239 214.586H229.344V216.586ZM242.211 231L240.719 232.332L242.213 234.006L243.705 232.33L242.211 231ZM255.043 216.586V214.586H254.146L253.549 215.256L255.043 216.586ZM274.273 216.586L275.778 217.903L278.683 214.586H274.273V216.586ZM252.02 242.004L250.515 240.686L249.352 242.015L250.526 243.334L252.02 242.004ZM274.273 267V269H278.732L275.767 265.67L274.273 267ZM254.305 267L252.807 268.326L253.404 269H254.305V267ZM242.07 253.184L243.568 251.858L242.062 250.157L240.565 251.866L242.07 253.184ZM229.977 267V269H230.884L231.481 268.317L229.977 267ZM210.043 267L208.551 265.668L205.575 269H210.043V267ZM232.367 242.004L233.859 243.336L235.039 242.015L233.87 240.684L232.367 242.004ZM210.043 216.586V218.586H229.344V216.586V214.586H210.043V216.586ZM229.344 216.586L227.852 217.918L240.719 232.332L242.211 231L243.703 229.668L230.836 215.254L229.344 216.586ZM242.211 231L243.705 232.33L256.537 217.916L255.043 216.586L253.549 215.256L240.717 229.67L242.211 231ZM255.043 216.586V218.586H274.273V216.586V214.586H255.043V216.586ZM274.273 216.586L272.769 215.268L250.515 240.686L252.02 242.004L253.524 243.321L275.778 217.903L274.273 216.586ZM252.02 242.004L250.526 243.334L272.78 268.33L274.273 267L275.767 265.67L253.513 240.674L252.02 242.004ZM274.273 267V265H254.305V267V269H274.273V267ZM254.305 267L255.802 265.674L243.568 251.858L242.07 253.184L240.573 254.509L252.807 268.326L254.305 267ZM242.07 253.184L240.565 251.866L228.472 265.683L229.977 267L231.481 268.317L243.575 254.501L242.07 253.184ZM229.977 267V265H210.043V267V269H229.977V267ZM210.043 267L211.535 268.332L233.859 243.336L232.367 242.004L230.875 240.672L208.551 265.668L210.043 267ZM232.367 242.004L233.87 240.684L211.546 215.266L210.043 216.586L208.54 217.906L230.864 243.324L232.367 242.004Z" fill="white" mask="url(#path-30-outside-1_2039_452)"/>
<mask id="path-32-outside-2_2039_452" maskUnits="userSpaceOnUse" x="147" y="214" width="57" height="55" fill="black">
<rect fill="white" x="147" y="214" width="57" height="55"/>
<path d="M149.043 267V216.586H186.273C190.492 216.586 194.066 218.051 196.996 220.98C199.926 223.91 201.391 227.484 201.391 231.703C201.391 234.188 200.816 236.52 199.668 238.699C198.543 240.879 196.996 242.66 195.027 244.043C197.043 245.027 198.648 246.516 199.844 248.508C201.062 250.477 201.672 252.68 201.672 255.117V267H185.605V256.559C185.605 255.363 185.57 254.414 185.5 253.711C185.453 252.984 185.301 252.246 185.043 251.496C184.809 250.723 184.457 250.137 183.988 249.738C183.543 249.316 182.91 248.965 182.09 248.684C181.27 248.402 180.262 248.238 179.066 248.191H164.652V267H149.043ZM164.723 237.785H181.562C182.898 237.785 184.07 237.188 185.078 235.992C186.109 234.797 186.625 233.473 186.625 232.02C186.625 230.613 186.109 229.301 185.078 228.082C184.07 226.863 182.898 226.254 181.562 226.254H164.723V237.785Z"/>
</mask>
<path d="M149.043 267V216.586H186.273C190.492 216.586 194.066 218.051 196.996 220.98C199.926 223.91 201.391 227.484 201.391 231.703C201.391 234.188 200.816 236.52 199.668 238.699C198.543 240.879 196.996 242.66 195.027 244.043C197.043 245.027 198.648 246.516 199.844 248.508C201.062 250.477 201.672 252.68 201.672 255.117V267H185.605V256.559C185.605 255.363 185.57 254.414 185.5 253.711C185.453 252.984 185.301 252.246 185.043 251.496C184.809 250.723 184.457 250.137 183.988 249.738C183.543 249.316 182.91 248.965 182.09 248.684C181.27 248.402 180.262 248.238 179.066 248.191H164.652V267H149.043ZM164.723 237.785H181.562C182.898 237.785 184.07 237.188 185.078 235.992C186.109 234.797 186.625 233.473 186.625 232.02C186.625 230.613 186.109 229.301 185.078 228.082C184.07 226.863 182.898 226.254 181.562 226.254H164.723V237.785Z" fill="black"/>
<path d="M149.043 267H147.043V269H149.043V267ZM149.043 216.586V214.586H147.043V216.586H149.043ZM199.668 238.699L197.899 237.767L197.895 237.774L197.891 237.782L199.668 238.699ZM195.027 244.043L193.878 242.406L191.106 244.353L194.15 245.84L195.027 244.043ZM199.844 248.508L198.129 249.537L198.136 249.549L198.143 249.561L199.844 248.508ZM201.672 267V269H203.672V267H201.672ZM185.605 267H183.605V269H185.605V267ZM185.5 253.711L183.504 253.84L183.506 253.875L183.51 253.91L185.5 253.711ZM185.043 251.496L183.129 252.076L183.14 252.111L183.152 252.146L185.043 251.496ZM183.988 249.738L182.613 251.19L182.652 251.227L182.693 251.262L183.988 249.738ZM179.066 248.191L179.145 246.193L179.106 246.191H179.066V248.191ZM164.652 248.191V246.191H162.652V248.191H164.652ZM164.652 267V269H166.652V267H164.652ZM164.723 237.785H162.723V239.785H164.723V237.785ZM185.078 235.992L183.564 234.686L183.556 234.694L183.549 234.703L185.078 235.992ZM185.078 228.082L183.537 229.357L183.544 229.365L183.551 229.374L185.078 228.082ZM164.723 226.254V224.254H162.723V226.254H164.723ZM149.043 267H151.043V216.586H149.043H147.043V267H149.043ZM149.043 216.586V218.586H186.273V216.586V214.586H149.043V216.586ZM186.273 216.586V218.586C189.973 218.586 193.035 219.848 195.582 222.395L196.996 220.98L198.41 219.566C195.098 216.254 191.012 214.586 186.273 214.586V216.586ZM196.996 220.98L195.582 222.395C198.129 224.942 199.391 228.004 199.391 231.703H201.391H203.391C203.391 226.965 201.723 222.879 198.41 219.566L196.996 220.98ZM201.391 231.703H199.391C199.391 233.865 198.894 235.877 197.899 237.767L199.668 238.699L201.437 239.631C202.739 237.162 203.391 234.51 203.391 231.703H201.391ZM199.668 238.699L197.891 237.782C196.911 239.681 195.577 241.213 193.878 242.406L195.027 244.043L196.177 245.68C198.415 244.107 200.175 242.077 201.445 239.617L199.668 238.699ZM195.027 244.043L194.15 245.84C195.805 246.648 197.125 247.864 198.129 249.537L199.844 248.508L201.559 247.479C200.172 245.168 198.281 243.406 195.905 242.246L195.027 244.043ZM199.844 248.508L198.143 249.561C199.156 251.196 199.672 253.031 199.672 255.117H201.672H203.672C203.672 252.328 202.969 249.757 201.544 247.455L199.844 248.508ZM201.672 255.117H199.672V267H201.672H203.672V255.117H201.672ZM201.672 267V265H185.605V267V269H201.672V267ZM185.605 267H187.605V256.559H185.605H183.605V267H185.605ZM185.605 256.559H187.605C187.605 255.335 187.57 254.311 187.49 253.512L185.5 253.711L183.51 253.91C183.571 254.517 183.605 255.391 183.605 256.559H185.605ZM185.5 253.711L187.496 253.582C187.437 252.663 187.245 251.749 186.934 250.846L185.043 251.496L183.152 252.146C183.357 252.743 183.47 253.306 183.504 253.84L185.5 253.711ZM185.043 251.496L186.957 250.916C186.646 249.888 186.124 248.928 185.284 248.214L183.988 249.738L182.693 251.262C182.79 251.345 182.972 251.557 183.129 252.076L185.043 251.496ZM183.988 249.738L185.364 248.286C184.643 247.604 183.725 247.13 182.738 246.792L182.09 248.684L181.441 250.575C182.095 250.8 182.443 251.029 182.613 251.19L183.988 249.738ZM182.09 248.684L182.738 246.792C181.679 246.429 180.466 246.245 179.145 246.193L179.066 248.191L178.988 250.19C180.057 250.232 180.86 250.376 181.441 250.575L182.09 248.684ZM179.066 248.191V246.191H164.652V248.191V250.191H179.066V248.191ZM164.652 248.191H162.652V267H164.652H166.652V248.191H164.652ZM164.652 267V265H149.043V267V269H164.652V267ZM164.723 237.785V239.785H181.562V237.785V235.785H164.723V237.785ZM181.562 237.785V239.785C183.591 239.785 185.291 238.842 186.607 237.281L185.078 235.992L183.549 234.703C182.849 235.533 182.206 235.785 181.562 235.785V237.785ZM185.078 235.992L186.592 237.299C187.908 235.774 188.625 233.995 188.625 232.02H186.625H184.625C184.625 232.95 184.311 233.82 183.564 234.686L185.078 235.992ZM186.625 232.02H188.625C188.625 230.076 187.898 228.318 186.605 226.79L185.078 228.082L183.551 229.374C184.321 230.283 184.625 231.15 184.625 232.02H186.625ZM185.078 228.082L186.619 226.808C185.309 225.223 183.606 224.254 181.562 224.254V226.254V228.254C182.19 228.254 182.831 228.504 183.537 229.357L185.078 228.082ZM181.562 226.254V224.254H164.723V226.254V228.254H181.562V226.254ZM164.723 226.254H162.723V237.785H164.723H166.723V226.254H164.723Z" fill="white" mask="url(#path-32-outside-2_2039_452)"/>
<mask id="path-34-outside-3_2039_452" maskUnits="userSpaceOnUse" x="281" y="214" width="57" height="55" fill="black">
<rect fill="white" x="281" y="214" width="57" height="55"/>
<path d="M335.957 267V216.586H298.727C294.508 216.586 290.934 218.051 288.004 220.98C285.074 223.91 283.609 227.484 283.609 231.703C283.609 234.188 284.184 236.52 285.332 238.699C286.457 240.879 288.004 242.66 289.973 244.043C287.957 245.027 286.352 246.516 285.156 248.508C283.938 250.477 283.328 252.68 283.328 255.117V267H299.395V256.559C299.395 255.363 299.43 254.414 299.5 253.711C299.547 252.984 299.699 252.246 299.957 251.496C300.191 250.723 300.543 250.137 301.012 249.738C301.457 249.316 302.09 248.965 302.91 248.684C303.73 248.402 304.738 248.238 305.934 248.191H320.348V267H335.957ZM320.277 237.785H303.438C302.102 237.785 300.93 237.188 299.922 235.992C298.891 234.797 298.375 233.473 298.375 232.02C298.375 230.613 298.891 229.301 299.922 228.082C300.93 226.863 302.102 226.254 303.438 226.254H320.277V237.785Z"/>
</mask>
<path d="M335.957 267V216.586H298.727C294.508 216.586 290.934 218.051 288.004 220.98C285.074 223.91 283.609 227.484 283.609 231.703C283.609 234.188 284.184 236.52 285.332 238.699C286.457 240.879 288.004 242.66 289.973 244.043C287.957 245.027 286.352 246.516 285.156 248.508C283.938 250.477 283.328 252.68 283.328 255.117V267H299.395V256.559C299.395 255.363 299.43 254.414 299.5 253.711C299.547 252.984 299.699 252.246 299.957 251.496C300.191 250.723 300.543 250.137 301.012 249.738C301.457 249.316 302.09 248.965 302.91 248.684C303.73 248.402 304.738 248.238 305.934 248.191H320.348V267H335.957ZM320.277 237.785H303.438C302.102 237.785 300.93 237.188 299.922 235.992C298.891 234.797 298.375 233.473 298.375 232.02C298.375 230.613 298.891 229.301 299.922 228.082C300.93 226.863 302.102 226.254 303.438 226.254H320.277V237.785Z" fill="black"/>
<path d="M335.957 267H337.957V269H335.957V267ZM335.957 216.586V214.586H337.957V216.586H335.957ZM285.332 238.699L287.101 237.767L287.105 237.774L287.109 237.782L285.332 238.699ZM289.973 244.043L291.122 242.406L293.894 244.353L290.85 245.84L289.973 244.043ZM285.156 248.508L286.871 249.537L286.864 249.549L286.857 249.561L285.156 248.508ZM283.328 267V269H281.328V267H283.328ZM299.395 267H301.395V269H299.395V267ZM299.5 253.711L301.496 253.84L301.494 253.875L301.49 253.91L299.5 253.711ZM299.957 251.496L301.871 252.076L301.86 252.111L301.848 252.146L299.957 251.496ZM301.012 249.738L302.387 251.19L302.348 251.227L302.307 251.262L301.012 249.738ZM305.934 248.191L305.855 246.193L305.894 246.191H305.934V248.191ZM320.348 248.191V246.191H322.348V248.191H320.348ZM320.348 267V269H318.348V267H320.348ZM320.277 237.785H322.277V239.785H320.277V237.785ZM299.922 235.992L301.436 234.686L301.444 234.694L301.451 234.703L299.922 235.992ZM299.922 228.082L301.463 229.357L301.456 229.365L301.449 229.374L299.922 228.082ZM320.277 226.254V224.254H322.277V226.254H320.277ZM335.957 267H333.957V216.586H335.957H337.957V267H335.957ZM335.957 216.586V218.586H298.727V216.586V214.586H335.957V216.586ZM298.727 216.586V218.586C295.027 218.586 291.965 219.848 289.418 222.395L288.004 220.98L286.59 219.566C289.902 216.254 293.988 214.586 298.727 214.586V216.586ZM288.004 220.98L289.418 222.395C286.871 224.942 285.609 228.004 285.609 231.703H283.609H281.609C281.609 226.965 283.277 222.879 286.59 219.566L288.004 220.98ZM283.609 231.703H285.609C285.609 233.865 286.106 235.877 287.101 237.767L285.332 238.699L283.563 239.631C282.261 237.162 281.609 234.51 281.609 231.703H283.609ZM285.332 238.699L287.109 237.782C288.089 239.681 289.423 241.213 291.122 242.406L289.973 244.043L288.823 245.68C286.585 244.107 284.825 242.077 283.555 239.617L285.332 238.699ZM289.973 244.043L290.85 245.84C289.195 246.648 287.875 247.864 286.871 249.537L285.156 248.508L283.441 247.479C284.828 245.168 286.719 243.406 289.095 242.246L289.973 244.043ZM285.156 248.508L286.857 249.561C285.844 251.196 285.328 253.031 285.328 255.117H283.328H281.328C281.328 252.328 282.031 249.757 283.456 247.455L285.156 248.508ZM283.328 255.117H285.328V267H283.328H281.328V255.117H283.328ZM283.328 267V265H299.395V267V269H283.328V267ZM299.395 267H297.395V256.559H299.395H301.395V267H299.395ZM299.395 256.559H297.395C297.395 255.335 297.43 254.311 297.51 253.512L299.5 253.711L301.49 253.91C301.429 254.517 301.395 255.391 301.395 256.559H299.395ZM299.5 253.711L297.504 253.582C297.563 252.663 297.755 251.749 298.066 250.846L299.957 251.496L301.848 252.146C301.643 252.743 301.53 253.306 301.496 253.84L299.5 253.711ZM299.957 251.496L298.043 250.916C298.354 249.888 298.876 248.928 299.716 248.214L301.012 249.738L302.307 251.262C302.21 251.345 302.028 251.557 301.871 252.076L299.957 251.496ZM301.012 249.738L299.636 248.286C300.357 247.604 301.275 247.13 302.262 246.792L302.91 248.684L303.559 250.575C302.905 250.8 302.557 251.029 302.387 251.19L301.012 249.738ZM302.91 248.684L302.262 246.792C303.321 246.429 304.534 246.245 305.855 246.193L305.934 248.191L306.012 250.19C304.943 250.232 304.14 250.376 303.559 250.575L302.91 248.684ZM305.934 248.191V246.191H320.348V248.191V250.191H305.934V248.191ZM320.348 248.191H322.348V267H320.348H318.348V248.191H320.348ZM320.348 267V265H335.957V267V269H320.348V267ZM320.277 237.785V239.785H303.438V237.785V235.785H320.277V237.785ZM303.438 237.785V239.785C301.409 239.785 299.709 238.842 298.393 237.281L299.922 235.992L301.451 234.703C302.151 235.533 302.794 235.785 303.438 235.785V237.785ZM299.922 235.992L298.408 237.299C297.092 235.774 296.375 233.995 296.375 232.02H298.375H300.375C300.375 232.95 300.689 233.82 301.436 234.686L299.922 235.992ZM298.375 232.02H296.375C296.375 230.076 297.102 228.318 298.395 226.79L299.922 228.082L301.449 229.374C300.679 230.283 300.375 231.15 300.375 232.02H298.375ZM299.922 228.082L298.381 226.808C299.691 225.223 301.394 224.254 303.438 224.254V226.254V228.254C302.81 228.254 302.169 228.504 301.463 229.357L299.922 228.082ZM303.438 226.254V224.254H320.277V226.254V228.254H303.438V226.254ZM320.277 226.254H322.277V237.785H320.277H318.277V226.254H320.277Z" fill="white" mask="url(#path-34-outside-3_2039_452)"/>
</svg>
